<?xml version="1.0" encoding="UTF-8"?>
<svg version="1.1" xmlns="http://www.w3.org/2000/svg" width="980" height="980">
<path d="M0 0 C13.74880835 9.71610316 22.19611171 24.50862323 25.4609375 40.796875 C26.24974046 46.00246064 26.24727719 51.24554281 26.375 56.5 C26.80307559 70.7756896 31.08001442 81.11802618 38.34545898 93.34692383 C44.10563354 103.16134485 46.64785612 112.97905903 48.25 124.1875 C48.42273438 125.33025391 48.59546875 126.47300781 48.7734375 127.65039062 C49.19246212 130.43224852 49.60111724 133.21519554 50 136 C51.28132812 135.96519531 52.56265625 135.93039062 53.8828125 135.89453125 C72.57506171 135.53374002 89.48426087 137.73771859 103.875 150.9375 C112.95319945 160.69857286 117.97804754 172.89908489 120 186 C120.18046875 187.12019531 120.3609375 188.24039063 120.546875 189.39453125 C121.02953957 193.37002651 121.10582224 197.32176091 121.17578125 201.32421875 C121.18778061 201.99671661 121.19977997 202.66921448 121.21214294 203.36209106 C121.26058834 206.17035945 121.30796334 208.97821333 121.32592773 211.78686523 C121.39954573 221.46480062 122.68465196 229.82418012 126 239 C126.42152614 240.34675427 126.83384196 241.69648493 127.23046875 243.05078125 C127.70419922 244.66533203 127.70419922 244.66533203 128.1875 246.3125 C129.26762016 250.09081915 130.21160226 253.71585294 130.625 257.625 C131.17789486 262.60105371 133.13653711 265.29500522 136.3125 269.0625 C143.93300535 278.71514011 148.35951976 290.642314 147 303 C144.46123897 316.06337163 138.03804011 324.64202584 127.13671875 332.078125 C117.20072808 338.16592999 106.64006907 342.60699709 95.875 347 C74.5404471 355.75132137 51.06092252 368.92005137 40.70703125 390.72265625 C33.6949102 407.91121291 37.7428595 423.7408648 43.63427734 440.63745117 C55.78577902 475.65691564 54.22286778 517.84728307 38.72265625 551.78125 C32.29302557 563.794891 24.11324919 572.60622158 11.18359375 577.15234375 C4.26144015 578.99542023 -2.93504213 578.8801945 -10.05664062 579.1328125 C-18.85158596 579.44915434 -18.85158596 579.44915434 -26 584 C-36.16545423 596.22801017 -41.26222273 614.89319594 -46.32324219 629.60913086 C-49.9133616 639.72021531 -54.09673869 647.2131007 -64 652 C-72.61166614 655.34898128 -80.94587105 654.83519428 -89.41796875 651.3515625 C-109.4873267 640.84627074 -120.53628055 608.35423172 -130.50683594 589.08837891 C-140.59308218 569.5041127 -140.59308218 569.5041127 -155 553 C-155.99 553 -156.98 553 -158 553 C-159.31459581 554.63303951 -159.31459581 554.63303951 -160.5 556.8125 C-167.31498149 567.49042892 -175.99352352 574.99784117 -188 579 C-202.07323711 580.07195495 -212.86352757 578.1575883 -223.984375 568.796875 C-224.64953125 568.20390625 -225.3146875 567.6109375 -226 567 C-226.60328125 566.48953125 -227.2065625 565.9790625 -227.828125 565.453125 C-236.92576815 557.17508934 -242.27742723 544.8854413 -247.96777344 534.15551758 C-251.73123473 527.15917905 -255.64031525 519.90957231 -262.5625 515.625 C-263.28566406 515.16351562 -264.00882812 514.70203125 -264.75390625 514.2265625 C-269.80086116 511.47048625 -274.23650861 510.09498895 -280 511 C-288.74384538 513.59300242 -295.20411207 518.06125109 -302 524 C-303.010625 524.763125 -304.02125 525.52625 -305.0625 526.3125 C-308.60389433 529.55249907 -311.44229056 533.1506359 -314.4453125 536.88671875 C-324.57959402 549.35691622 -334.98177329 560.81983974 -351.6875 563.41796875 C-361.99030718 563.97204414 -371.84827979 559.8101957 -379.625 553.19140625 C-380.800625 552.10666016 -380.800625 552.10666016 -382 551 C-382.7425 550.32686768 -382.7425 550.32686768 -383.5 549.64013672 C-399.19108992 535.27392549 -411.11667754 517.04489453 -412.3203125 495.25390625 C-413.19877235 469.11657934 -401.23518001 448.48419717 -387.34375 427.1640625 C-375.03384501 408.26056021 -366.33823406 390.67632853 -371.015625 367.69921875 C-372.02106355 363.9208445 -373.15636011 359.84363989 -376 357 C-384.30497793 356.69496844 -391.09229434 359.88792732 -398.4375 363.375 C-410.11874257 368.8552653 -420.29743147 372.57770813 -433.3125 372.4375 C-434.31579346 372.42920166 -435.31908691 372.42090332 -436.3527832 372.41235352 C-453.06007116 372.03408038 -466.94583258 365.91332277 -478.75976562 354.04589844 C-488.84611037 343.12014418 -493.52458379 329.11089022 -493.40625 314.4375 C-493.01277695 308.16507667 -491.32913589 302.10341519 -489.69116211 296.05786133 C-489.46178955 295.1995874 -489.23241699 294.34131348 -488.99609375 293.45703125 C-488.78138428 292.69366455 -488.5666748 291.93029785 -488.34545898 291.14379883 C-487.96476958 288.7813722 -488.26301243 287.25640442 -489 285 C-492.37486678 284.19646029 -494.46160317 283.815752 -497.78515625 284.953125 C-504.70655171 287.20699375 -513.0833198 287.18960693 -519.875 284.4375 C-527.39142205 280.44833746 -533.17293308 275.14578603 -536 267 C-539.95003072 251.54451066 -536.12113065 233.89394513 -529 220 C-517.75142628 201.15863903 -501.11159842 188.27045061 -480.01171875 182.59765625 C-472.0687621 180.60187871 -464.05842817 178.99845734 -456.01147461 177.48754883 C-438.77435657 174.24854067 -438.77435657 174.24854067 -425 164 C-420.70631234 156.99715091 -418.57765141 149.60018955 -416.625 141.6875 C-407.4950053 106.61514201 -407.4950053 106.61514201 -397 93 C-396.45988281 92.29875 -395.91976562 91.5975 -395.36328125 90.875 C-387.80330565 82.34384366 -375.19595521 76.21221413 -364 75 C-353.51013127 74.44967498 -344.33813119 76.57344565 -334.3125 79.5625 C-320.11203525 84.02070112 -320.11203525 84.02070112 -305.6328125 82.140625 C-296.88219381 77.31952942 -291.54220175 68.01308827 -286.625 59.6875 C-276.68397025 43.27931059 -266.41803984 30.28411694 -247.671875 23.859375 C-236.24744476 21.18557218 -224.15938973 21.8793199 -214 28 C-204.21748404 34.39961383 -198.3828164 45.38403126 -192.8125 55.375 C-186.35986235 66.87569388 -178.9960029 73.42873954 -166.203125 77.45703125 C-142.0422511 83.41157287 -114.83657794 74.32157702 -94 62 C-83.41564541 55.57061169 -76.65446969 47.0309664 -69.50927734 37.08789062 C-54.51076372 16.33938067 -29.13130274 -14.20264448 0 0 Z " fill="#EC1B23" transform="translate(681,194)"/>
<path d="M0 0 C5.07459363 4.75743153 7.54577981 10.66827524 7.875 17.53125 C7.85072732 22.43433188 6.09775627 25.85118779 3.69140625 30.046875 C1.76381649 33.86413472 1.36577404 37.4869185 1.4375 41.71875 C1.458125 42.935625 1.47875 44.1525 1.5 45.40625 C0.84 45.40625 0.18 45.40625 -0.5 45.40625 C-0.5928125 46.52 -0.5928125 46.52 -0.6875 47.65625 C-1.76135041 51.29082063 -3.39969501 52.31534663 -6.5 54.40625 C-7.18465332 54.69040771 -7.86930664 54.97456543 -8.57470703 55.26733398 C-11.04438182 56.7282816 -11.26983844 57.70489611 -11.9921875 60.44140625 C-12.33237915 61.64941895 -12.33237915 61.64941895 -12.67944336 62.88183594 C-12.90897705 63.73551758 -13.13851074 64.58919922 -13.375 65.46875 C-15.46881176 72.61900066 -17.54075862 78.69370614 -22.5 84.40625 C-22.99886719 85.02371094 -23.49773437 85.64117188 -24.01171875 86.27734375 C-30.00070774 93.02039431 -39.19109229 97.93758828 -48.234375 98.609375 C-58.83492233 98.77415035 -66.26799625 96.20467321 -74.5 89.40625 C-83.5273749 79.97727042 -85.91905834 69.60653955 -85.7734375 56.77734375 C-84.71047917 43.67258604 -76.28128346 31.73207848 -66.5 23.40625 C-52.09527911 11.46720205 -19.25975103 -12.96329396 0 0 Z " fill="#EC1B23" transform="translate(232.5,592.59375)"/>
<path d="M0 0 C6.6537476 5.5985824 11.10378881 11.83919868 11.89453125 20.69140625 C11.93456318 32.67429678 10.2299395 38.3321661 1.9140625 47.0625 C-9.79134337 58.47231481 -25.46537766 60.68259008 -41.26855469 60.62890625 C-66.02384578 60.09187031 -83.9510988 52.32680619 -103.40625 37.32421875 C-104.08429687 36.83824219 -104.76234375 36.35226562 -105.4609375 35.8515625 C-108.03657246 33.93524079 -109.29723827 32.66682706 -110.28125 29.57421875 C-110.3225 28.50171875 -110.36375 27.42921875 -110.40625 26.32421875 C-110.46683594 25.65390625 -110.52742187 24.98359375 -110.58984375 24.29296875 C-111.02925146 16.72983002 -108.78648917 10.26819878 -104.03125 4.38671875 C-98.67183355 0.17574868 -94.67486885 -1.00973684 -87.96875 -1.07421875 C-85.40625 -0.67578125 -85.40625 -0.67578125 -82.70703125 0.765625 C-78.35992074 2.81828428 -74.34223616 3.20052473 -69.59375 3.63671875 C-68.74232422 3.73533203 -67.89089844 3.83394531 -67.01367188 3.93554688 C-57.90240899 4.83071284 -50.75478611 2.77018965 -42.59375 -1.11328125 C-27.40125503 -8.00987436 -14.47438134 -10.08037272 0 0 Z " fill="#EC1B23" transform="translate(876.40625,594.67578125)"/>
<path d="M0 0 C10.8229317 8.65425352 15.18305241 21.70853948 16.71557617 35.15332031 C17.07474187 40.37383931 16.93704188 45.61054398 16.87890625 50.83984375 C16.85343462 53.16922473 16.83238886 55.49865958 16.81640625 57.828125 C16.80480469 58.85075439 16.79320312 59.87338379 16.78125 60.92700195 C16.76153895 63.64257877 16.76153895 63.64257877 17.87890625 66.52734375 C18.66151355 73.03196506 17.73422932 78.17272837 13.87890625 83.52734375 C8.37264878 89.41199332 2.58192377 92.14739538 -5.46875 92.71484375 C-18.24769968 91.81147176 -31.3664284 74.97731827 -39.30859375 65.83984375 C-48.50530073 54.05821149 -50.08836297 41.16628808 -48.8828125 26.66015625 C-47.4436645 16.6297308 -42.78434855 6.35183434 -35.12109375 -0.47265625 C-24.40281176 -8.23745609 -10.56899876 -7.33796046 0 0 Z " fill="#EC1B23" transform="translate(558.12109375,139.47265625)"/>
<path d="M0 0 C6.45746166 4.90825 10.21286877 11.73626255 12.7421875 19.32421875 C13.66462557 33.32044252 11.49355028 45.55275052 5.2265625 58.1953125 C3.36405288 62.12128672 2.00885992 66.13911686 0.69921875 70.27734375 C0.38339844 70.9528125 0.06757813 71.62828125 -0.2578125 72.32421875 C-1.2478125 72.65421875 -2.2378125 72.98421875 -3.2578125 73.32421875 C-3.99105046 75.33930233 -3.99105046 75.33930233 -4.2578125 77.32421875 C-13.56176157 79.76459883 -22.54173647 81.26365978 -31.2578125 76.32421875 C-33.09464203 74.05164763 -34.25741409 71.60787823 -35.4453125 68.94921875 C-35.94720093 67.88707153 -35.94720093 67.88707153 -36.45922852 66.8034668 C-42.96476255 52.65555546 -47.43687583 36.61864014 -42.2578125 21.32421875 C-38.09883607 10.94302368 -31.86014866 2.94437882 -21.6328125 -1.92578125 C-14.2766501 -3.560484 -6.65373109 -3.93426009 0 0 Z " fill="#EC1B23" transform="translate(226.2578125,240.67578125)"/>
<path d="M0 0 C2.6875 2.1875 2.6875 2.1875 5 5 C5.50402344 5.58910156 6.00804687 6.17820312 6.52734375 6.78515625 C12.49647483 14.12616586 14.89772916 21.56537466 14 31 C13.00985478 38.67362544 9.57873931 44.62135895 4 50 C-5.6487198 56.35808447 -17.48436086 59.23859172 -28.9375 58.875 C-32.5863323 57.83247648 -34.92111093 56.21680013 -38 54 C-39.53548811 53.17588313 -41.07759416 52.36401577 -42.625 51.5625 C-48.37432581 48.37914846 -51.41741747 44.4206712 -53.51953125 38.23046875 C-55.28393352 30.03962571 -52.29422568 22.86223657 -48 16 C-42.00951554 7.17741286 -34.92025513 0.52465535 -24.515625 -2.53125 C-16.31162559 -4.05994554 -7.51357388 -3.92287647 0 0 Z " fill="#EC1B23" transform="translate(811,255)"/>
<path d="M0 0 C5.45065406 4.14127906 9.10624032 8.84436804 10.2109375 15.69140625 C10.66407034 22.12757088 10.02764494 25.7309235 5.734375 30.6875 C1.89430966 34.46747042 -1.22272179 36.28040622 -6.203125 38.125 C-7.38348123 39.06226227 -8.52822012 40.04551585 -9.640625 41.0625 C-15.47600447 46.21515295 -19.72791979 48.50454371 -27.703125 48.0625 C-37.80490949 46.85214794 -44.34616158 43.89622521 -51.203125 36.125 C-56.65971772 27.47999443 -58.37594806 19.30826176 -57.203125 9.125 C-54.77948769 1.79349712 -51.07380711 -4.98388103 -44.203125 -8.875 C-29.00750905 -15.79374588 -13.09554518 -8.43225348 0 0 Z " fill="#EC1B23" transform="translate(157.203125,325.875)"/>
<path d="M0 0 C2.92693341 0.46095091 2.92693341 0.46095091 5.85546875 -0.73828125 C6.19578125 0.43734375 6.19578125 0.43734375 6.54296875 1.63671875 C6.97609375 2.50296875 7.40921875 3.36921875 7.85546875 4.26171875 C8.65984375 4.48859375 9.46421875 4.71546875 10.29296875 4.94921875 C12.85546875 6.26171875 12.85546875 6.26171875 13.84765625 8.35546875 C16.64111385 17.18811564 16.11529621 23.70467166 12.85546875 32.26171875 C12.19546875 32.26171875 11.53546875 32.26171875 10.85546875 32.26171875 C10.52546875 33.25171875 10.19546875 34.24171875 9.85546875 35.26171875 C7.29296875 36.44921875 7.29296875 36.44921875 4.85546875 37.26171875 C4.85546875 37.92171875 4.85546875 38.58171875 4.85546875 39.26171875 C-9.00020908 41.14192555 -9.00020908 41.14192555 -14.14453125 39.26171875 C-16.96523169 36.9120479 -19.0356294 34.25075851 -21.14453125 31.26171875 C-21.78390625 30.45734375 -22.42328125 29.65296875 -23.08203125 28.82421875 C-25.6577147 22.61227632 -24.29370599 16.3670535 -21.98046875 10.265625 C-19.81340479 5.07074739 -17.80591063 2.30595753 -12.671875 -0.09375 C-8.40419137 -1.18210827 -4.32487704 -0.55265135 0 0 Z " fill="#EC1B23" transform="translate(858.14453125,317.73828125)"/>
</svg>
